<?xml version="1.0" encoding="UTF-8" standalone="no"?>
<!-- Created with Inkscape (http://www.inkscape.org/) -->
<svg
   xmlns:dc="http://purl.org/dc/elements/1.1/"
   xmlns:cc="http://web.resource.org/cc/"
   xmlns:rdf="http://www.w3.org/1999/02/22-rdf-syntax-ns#"
   xmlns:svg="http://www.w3.org/2000/svg"
   xmlns="http://www.w3.org/2000/svg"
   xmlns:sodipodi="http://sodipodi.sourceforge.net/DTD/sodipodi-0.dtd"
   xmlns:inkscape="http://www.inkscape.org/namespaces/inkscape"
   version="1.0"
   width="440"
   height="360"
   id="svg2"
   sodipodi:version="0.32"
   inkscape:version="0.44.1"
   sodipodi:docname="Fahrrad_aus_Zusatzzeichen_1000-32.svg"
   sodipodi:docbase="L:\Wiki\pedia\ksh\svg">
  <metadata
     id="metadata11">
    <rdf:RDF>
      <cc:Work
         rdf:about="">
        <dc:format>image/svg+xml</dc:format>
        <dc:type
           rdf:resource="http://purl.org/dc/dcmitype/StillImage" />
        <cc:license
           rdf:resource="http://web.resource.org/cc/PublicDomain" />
        <dc:title>Symbol: Fahrrad</dc:title>
        <dc:creator>
          <cc:Agent>
            <dc:title>Purodha Blissenbach</dc:title>
          </cc:Agent>
        </dc:creator>
        <dc:source>http://commons.mediawiki.org/wiki/Image:Zusatzzeichen_1000-32.svg</dc:source>
      </cc:Work>
      <cc:License
         rdf:about="http://web.resource.org/cc/PublicDomain">
        <cc:permits
           rdf:resource="http://web.resource.org/cc/Reproduction" />
        <cc:permits
           rdf:resource="http://web.resource.org/cc/Distribution" />
        <cc:permits
           rdf:resource="http://web.resource.org/cc/DerivativeWorks" />
      </cc:License>
    </rdf:RDF>
  </metadata>
  <sodipodi:namedview
     inkscape:window-height="749"
     inkscape:window-width="1024"
     inkscape:pageshadow="2"
     inkscape:pageopacity="1"
     guidetolerance="10.0"
     gridtolerance="10.0"
     objecttolerance="10.0"
     borderopacity="1.0"
     bordercolor="#666666"
     pagecolor="white"
     id="base"
     inkscape:zoom="1.05"
     inkscape:cx="426.38288"
     inkscape:cy="175.14"
     inkscape:window-x="545"
     inkscape:window-y="8"
     inkscape:current-layer="g2015"
     inkscape:showpageshadow="false"
     showborder="true"
     showgrid="true"
     gridempspacing="20"
     width="440px"
     height="360px" />
  <defs
     id="defs4" />
  <g
     id="g2015"
     transform="translate(-135.0463,-250.2563)">
    <g
       id="g1999"
       transform="matrix(0.427115,0,0,0.427115,140.5244,338.2584)">
      <circle
         id="circle2001"
         style="fill:none;stroke:black;stroke-width:40px"
         r="161"
         cy="409"
         cx="215"
         sodipodi:cx="215"
         sodipodi:cy="409"
         sodipodi:rx="161"
         sodipodi:ry="161" />
      <circle
         id="circle2003"
         style="fill:none;stroke:black;stroke-width:40px"
         r="161"
         cy="406"
         cx="790"
         sodipodi:cx="790"
         sodipodi:cy="406"
         sodipodi:rx="161"
         sodipodi:ry="161" />
      <path
         id="path2005"
         style="fill:black;fill-rule:evenodd;stroke:none"
         d="M 429.48437,15.467118 C 296.9179,16.75919 319.39993,1.7711686 248.07762,230.98455 C 189.97511,414.12586 196.30387,394.15363 196,407 C 195.78704,416.98022 203.84333,424.89312 213.96694,425.57043 C 235.02054,423.44166 226.16492,427.84741 299.15748,201.18078 C 565.86963,482.5364 465.80592,436.91194 609.34064,442.62576 C 797.98299,440.81686 813.31557,452.4455 815.55516,424.79518 C 815.29674,415.40613 810.90371,409.80716 681.4382,121.67535 L 693.84208,87.564675 L 736.48042,86.789433 L 734.92994,51.128275 L 576.00521,51.128275 C 561.96471,70.337063 581.69033,70.250925 652.75423,86.01419 L 640.35035,120.9001 L 323.27614,121.67535 C 344.63838,47.079788 332.57905,51.731243 428.70913,51.903518 L 429.48437,15.467118 z M 314.11415,159.91012 L 624.37752,159.36001 L 534.70921,400.30922 L 314.11415,159.91012 z M 661.78516,174.21304 L 573.76718,405.26023 L 766.3065,405.81034 L 661.78516,174.21304 z " />
    </g>
  </g>
</svg>
